<svg width="48" height="61" viewBox="0 0 48 61" fill="none" xmlns="http://www.w3.org/2000/svg">
<g clip-path="url(#clip0_27_182)">
<path d="M13.0925 44.6607V46.8393C13.0925 47.1343 12.9845 47.3896 12.7687 47.6052C12.5528 47.8208 12.2971 47.9286 12.0017 47.9286H9.82024C9.52483 47.9286 9.26918 47.8208 9.05331 47.6052C8.83743 47.3896 8.72949 47.1343 8.72949 46.8393V44.6607C8.72949 44.3657 8.83743 44.1104 9.05331 43.8948C9.26918 43.6792 9.52483 43.5714 9.82024 43.5714H12.0017C12.2971 43.5714 12.5528 43.6792 12.7687 43.8948C12.9845 44.1104 13.0925 44.3657 13.0925 44.6607ZM13.0925 35.9464V38.125C13.0925 38.42 12.9845 38.6753 12.7687 38.8909C12.5528 39.1065 12.2971 39.2143 12.0017 39.2143H9.82024C9.52483 39.2143 9.26918 39.1065 9.05331 38.8909C8.83743 38.6753 8.72949 38.42 8.72949 38.125V35.9464C8.72949 35.6514 8.83743 35.3961 9.05331 35.1805C9.26918 34.9649 9.52483 34.8571 9.82024 34.8571H12.0017C12.2971 34.8571 12.5528 34.9649 12.7687 35.1805C12.9845 35.3961 13.0925 35.6514 13.0925 35.9464ZM21.8184 35.9464V38.125C21.8184 38.42 21.7105 38.6753 21.4946 38.8909C21.2787 39.1065 21.0231 39.2143 20.7277 39.2143H18.5462C18.2508 39.2143 17.9951 39.1065 17.7793 38.8909C17.5634 38.6753 17.4554 38.42 17.4554 38.125V35.9464C17.4554 35.6514 17.5634 35.3961 17.7793 35.1805C17.9951 34.9649 18.2508 34.8571 18.5462 34.8571H20.7277C21.0231 34.8571 21.2787 34.9649 21.4946 35.1805C21.7105 35.3961 21.8184 35.6514 21.8184 35.9464ZM13.0925 27.2321V29.4107C13.0925 29.7057 12.9845 29.961 12.7687 30.1766C12.5528 30.3922 12.2971 30.5 12.0017 30.5H9.82024C9.52483 30.5 9.26918 30.3922 9.05331 30.1766C8.83743 29.961 8.72949 29.7057 8.72949 29.4107V27.2321C8.72949 26.9371 8.83743 26.6818 9.05331 26.4662C9.26918 26.2507 9.52483 26.1429 9.82024 26.1429H12.0017C12.2971 26.1429 12.5528 26.2507 12.7687 26.4662C12.9845 26.6818 13.0925 26.9371 13.0925 27.2321ZM39.2703 44.6607V46.8393C39.2703 47.1343 39.1624 47.3896 38.9465 47.6052C38.7306 47.8208 38.475 47.9286 38.1796 47.9286H35.9981C35.7027 47.9286 35.447 47.8208 35.2312 47.6052C35.0153 47.3896 34.9073 47.1343 34.9073 46.8393V44.6607C34.9073 44.3657 35.0153 44.1104 35.2312 43.8948C35.447 43.6792 35.7027 43.5714 35.9981 43.5714H38.1796C38.475 43.5714 38.7306 43.6792 38.9465 43.8948C39.1624 44.1104 39.2703 44.3657 39.2703 44.6607ZM30.5444 35.9464V38.125C30.5444 38.42 30.4364 38.6753 30.2206 38.8909C30.0047 39.1065 29.749 39.2143 29.4536 39.2143H27.2721C26.9767 39.2143 26.7211 39.1065 26.5052 38.8909C26.2893 38.6753 26.1814 38.42 26.1814 38.125V35.9464C26.1814 35.6514 26.2893 35.3961 26.5052 35.1805C26.7211 34.9649 26.9767 34.8571 27.2721 34.8571H29.4536C29.749 34.8571 30.0047 34.9649 30.2206 35.1805C30.4364 35.3961 30.5444 35.6514 30.5444 35.9464ZM21.8184 27.2321V29.4107C21.8184 29.7057 21.7105 29.961 21.4946 30.1766C21.2787 30.3922 21.0231 30.5 20.7277 30.5H18.5462C18.2508 30.5 17.9951 30.3922 17.7793 30.1766C17.5634 29.961 17.4554 29.7057 17.4554 29.4107V27.2321C17.4554 26.9371 17.5634 26.6818 17.7793 26.4662C17.9951 26.2507 18.2508 26.1429 18.5462 26.1429H20.7277C21.0231 26.1429 21.2787 26.2507 21.4946 26.4662C21.7105 26.6818 21.8184 26.9371 21.8184 27.2321ZM39.2703 35.9464V38.125C39.2703 38.42 39.1624 38.6753 38.9465 38.8909C38.7306 39.1065 38.475 39.2143 38.1796 39.2143H35.9981C35.7027 39.2143 35.447 39.1065 35.2312 38.8909C35.0153 38.6753 34.9073 38.42 34.9073 38.125V35.9464C34.9073 35.6514 35.0153 35.3961 35.2312 35.1805C35.447 34.9649 35.7027 34.8571 35.9981 34.8571H38.1796C38.475 34.8571 38.7306 34.9649 38.9465 35.1805C39.1624 35.3961 39.2703 35.6514 39.2703 35.9464ZM30.5444 27.2321V29.4107C30.5444 29.7057 30.4364 29.961 30.2206 30.1766C30.0047 30.3922 29.749 30.5 29.4536 30.5H27.2721C26.9767 30.5 26.7211 30.3922 26.5052 30.1766C26.2893 29.961 26.1814 29.7057 26.1814 29.4107V27.2321C26.1814 26.9371 26.2893 26.6818 26.5052 26.4662C26.7211 26.2507 26.9767 26.1429 27.2721 26.1429H29.4536C29.749 26.1429 30.0047 26.2507 30.2206 26.4662C30.4364 26.6818 30.5444 26.9371 30.5444 27.2321ZM39.2703 27.2321V29.4107C39.2703 29.7057 39.1624 29.961 38.9465 30.1766C38.7306 30.3922 38.475 30.5 38.1796 30.5H35.9981C35.7027 30.5 35.447 30.3922 35.2312 30.1766C35.0153 29.961 34.9073 29.7057 34.9073 29.4107V27.2321C34.9073 26.9371 35.0153 26.6818 35.2312 26.4662C35.447 26.2507 35.7027 26.1429 35.9981 26.1429H38.1796C38.475 26.1429 38.7306 26.2507 38.9465 26.4662C39.1624 26.6818 39.2703 26.9371 39.2703 27.2321ZM30.5444 56.6429H43.6333V17.4286H34.9073V18.5179C34.9073 19.4256 34.5892 20.1972 33.9529 20.8326C33.3167 21.468 32.5441 21.7857 31.6351 21.7857H16.3647C15.4557 21.7857 14.6831 21.468 14.0469 20.8326C13.4106 20.1972 13.0925 19.4256 13.0925 18.5179V17.4286H4.36652V56.6429H17.4554V49.0179C17.4554 48.7228 17.5634 48.4675 17.7793 48.252C17.9951 48.0364 18.2508 47.9286 18.5462 47.9286H29.4536C29.749 47.9286 30.0047 48.0364 30.2206 48.252C30.4364 48.4675 30.5444 48.7228 30.5444 49.0179V56.6429ZM30.5444 16.3393V5.44643C30.5444 5.15141 30.4364 4.89611 30.2206 4.68052C30.0047 4.46494 29.749 4.35714 29.4536 4.35714H27.2721C26.9767 4.35714 26.7211 4.46494 26.5052 4.68052C26.2893 4.89611 26.1814 5.15141 26.1814 5.44643V8.71429H21.8184V5.44643C21.8184 5.15141 21.7105 4.89611 21.4946 4.68052C21.2787 4.46494 21.0231 4.35714 20.7277 4.35714H18.5462C18.2508 4.35714 17.9951 4.46494 17.7793 4.68052C17.5634 4.89611 17.4554 5.15141 17.4554 5.44643V16.3393C17.4554 16.6343 17.5634 16.8896 17.7793 17.1052C17.9951 17.3208 18.2508 17.4286 18.5462 17.4286H20.7277C21.0231 17.4286 21.2787 17.3208 21.4946 17.1052C21.7105 16.8896 21.8184 16.6343 21.8184 16.3393V13.0714H26.1814V16.3393C26.1814 16.6343 26.2893 16.8896 26.5052 17.1052C26.7211 17.3208 26.9767 17.4286 27.2721 17.4286H29.4536C29.749 17.4286 30.0047 17.3208 30.2206 17.1052C30.4364 16.8896 30.5444 16.6343 30.5444 16.3393ZM47.9963 15.25V58.8214C47.9963 59.4115 47.7804 59.9221 47.3486 60.3532C46.9169 60.7844 46.4056 61 45.8148 61H2.18503C1.59421 61 1.08292 60.7844 0.651169 60.3532C0.219416 59.9221 0.00354004 59.4115 0.00354004 58.8214V15.25C0.00354004 14.66 0.219416 14.1494 0.651169 13.7182C1.08292 13.287 1.59421 13.0714 2.18503 13.0714H13.0925V3.26786C13.0925 2.36012 13.4106 1.58854 14.0469 0.953125C14.6831 0.317708 15.4557 0 16.3647 0H31.6351C32.5441 0 33.3167 0.317708 33.9529 0.953125C34.5892 1.58854 34.9073 2.36012 34.9073 3.26786V13.0714H45.8148C46.4056 13.0714 46.9169 13.287 47.3486 13.7182C47.7804 14.1494 47.9963 14.66 47.9963 15.25Z" fill="black"/>
</g>
<defs>
<clipPath id="clip0_27_182">
<rect width="48" height="61" fill="white"/>
</clipPath>
</defs>
</svg>
